<?xml version="1.0" encoding="UTF-8" standalone="no"?>
<!-- Created with Inkscape (http://www.inkscape.org/) -->

<svg
   width="71.153152mm"
   height="95.485352mm"
   viewBox="0 0 71.153152 95.485352"
   version="1.1"
   id="svg1"
   xml:space="preserve"
   inkscape:version="1.4 (e7c3feb100, 2024-10-09)"
   sodipodi:docname="exsyn-ear.svg"
   xmlns:inkscape="http://www.inkscape.org/namespaces/inkscape"
   xmlns:sodipodi="http://sodipodi.sourceforge.net/DTD/sodipodi-0.dtd"
   xmlns="http://www.w3.org/2000/svg"
   xmlns:svg="http://www.w3.org/2000/svg"><sodipodi:namedview
     id="namedview1"
     pagecolor="#ffffff"
     bordercolor="#000000"
     borderopacity="0.25"
     inkscape:showpageshadow="2"
     inkscape:pageopacity="0.0"
     inkscape:pagecheckerboard="0"
     inkscape:deskcolor="#d1d1d1"
     inkscape:document-units="mm"
     inkscape:zoom="0.7198092"
     inkscape:cx="228.53278"
     inkscape:cy="390.38123"
     inkscape:window-width="1848"
     inkscape:window-height="1011"
     inkscape:window-x="72"
     inkscape:window-y="32"
     inkscape:window-maximized="1"
     inkscape:current-layer="layer1" /><defs
     id="defs1" /><g
     inkscape:label="Layer 1"
     inkscape:groupmode="layer"
     id="layer1"
     transform="translate(-44.428887,-45.15833)"><path
       id="path2"
       style="fill:#000000"
       d="m 68.26446,113.90434 c -1.670953,-0.57718 -2.60177,-1.37839 -3.261147,-2.80707 -0.638499,-1.38344 -0.623906,-2.4273 0.05947,-4.25378 1.104377,-2.95172 4.719391,-5.68559 8.547487,-6.4641 1.426387,-0.29008 3.525598,-0.21005 4.522236,0.17239 0.344244,0.1321 0.393652,-1.116586 0.393652,-9.948806 0,-5.95972 0.104314,-10.29477 0.254472,-10.57535 0.396527,-0.74092 1.724033,-1.16809 3.060675,-0.98488 4.345469,0.59561 7.947057,5.67265 10.187103,14.36041 0.847223,3.28586 0.916678,4.46495 0.26301,4.46495 -0.254492,0 -0.728772,-0.93945 -1.365351,-2.70447 -0.536471,-1.48746 -1.351946,-3.36261 -1.812166,-4.16699 -1.203532,-2.10355 -3.249498,-4.22907 -4.827892,-5.01562 -2.492768,-1.2422 -2.282065,-2.13921 -2.372713,10.10115 l -0.07985,10.781766 -0.64667,1.32291 c -0.83464,1.70746 -3.033801,3.85636 -4.861848,4.75074 -3.048966,1.49172 -5.640739,1.80257 -8.060468,0.96675 z m -3.096516,25.65879 c -3.423954,-1.13119 -5.113231,-2.02646 -7.833257,-4.1514 -4.07973,-3.18717 -7.182299,-8.12475 -8.337402,-13.26857 -0.704482,-3.13714 -0.764261,-6.07904 -0.133447,-6.56714 1.05309,-0.81486 1.781482,-0.81209 2.603433,0.01 0.662768,0.66277 0.876725,1.38582 1.050074,3.54861 0.51222,6.39074 4.677851,12.38911 10.680818,15.38001 3.218792,1.60374 5.478749,2.14881 8.910759,2.14915 7.319222,7.6e-4 12.305685,-2.84564 17.359801,-9.90944 1.642885,-2.29613 3.931924,-5.48641 5.086779,-7.08948 11.186168,-15.52791 13.213458,-18.7977 15.360558,-24.774946 1.95826,-5.45155 2.51035,-15.69137 1.17226,-21.74222 -2.51582,-11.376507 -9.90549,-19.374483 -21.033426,-22.76481 -2.918959,-0.889323 -3.768499,-0.980152 -9.402617,-1.005268 -7.269595,-0.03236 -8.963994,0.324082 -14.573491,3.066217 -6.507743,3.181224 -11.396082,8.136004 -14.620178,14.818891 -1.712265,3.54917 -3.025479,8.54592 -3.047677,11.59634 -0.0073,1.00194 -0.219577,2.23158 -0.471749,2.73254 -0.568757,1.12989 -2.104385,1.38203 -2.9947,0.49172 -0.555431,-0.55542 -0.609895,-1.08117 -0.408624,-3.94448 1.298441,-18.471827 16.986895,-32.978458 35.667358,-32.980524 16.699793,-0.0014 30.066064,9.985607 34.377554,25.687354 0.93124,3.39147 0.99995,4.12889 1.00126,10.74593 10e-4,6.18941 -0.10686,7.54571 -0.83891,10.52927 -1.90411,7.76023 -4.61985,12.685656 -14.58426,26.450976 -2.32088,3.20616 -5.356651,7.4647 -6.746164,9.46342 -3.091637,4.44709 -4.536134,6.0716 -7.052947,7.93189 -6.065306,4.48313 -14.284977,5.87796 -21.191809,3.5961 z M 56.996373,96.321104 c -0.737002,-0.737 -0.734354,-2.11863 0.0052,-2.73244 0.31777,-0.26373 1.585526,-0.59833 2.817232,-0.74357 1.869585,-0.22043 2.406018,-0.45043 3.247778,-1.39254 1.151054,-1.28823 1.332298,-3.07701 0.478984,-4.72714 -0.59873,-1.1578 -1.747415,-1.69294 -4.389234,-2.04481 -1.001922,-0.13343 -2.026623,-0.41132 -2.277105,-0.61748 -0.614915,-0.50613 -0.571021,-3.87011 0.0913,-6.99649 0.293734,-1.38654 1.296009,-4.09175 2.227262,-6.01156 1.443382,-2.97556 2.183463,-3.98065 5.015766,-6.81186 2.733322,-2.732267 3.871748,-3.585197 6.41942,-4.809507 3.847885,-1.84914 5.500533,-2.23266 9.669471,-2.24394 10.767509,-0.0291 20.082823,7.207257 22.761793,17.681927 0.81062,3.16957 0.94816,6.71364 0.28623,7.37559 -0.57267,0.57266 -2.28908,0.5613 -2.75227,-0.0182 -0.20019,-0.25048 -0.47506,-1.43913 -0.61083,-2.64145 -1.06682,-9.4478 -7.146094,-16.34459 -16.056081,-18.215267 -3.278913,-0.68842 -4.519597,-0.68083 -7.445647,0.0456 -7.354516,1.825797 -13.215072,7.698707 -15.460652,15.493237 -0.917139,3.18342 -0.820018,3.82804 0.617388,4.09769 1.993475,0.37399 4.498363,2.2002 5.395879,3.93394 1.101729,2.12817 1.122233,5.70357 0.04462,7.78334 -1.294347,2.49815 -4.484207,4.16079 -7.991609,4.16547 -0.900601,0.001 -1.756261,-0.23181 -2.094947,-0.5705 z"
       inkscape:export-filename="exsyn-ear.png"
       inkscape:export-xdpi="96"
       inkscape:export-ydpi="96" /></g></svg>
