<?xml version="1.0" encoding="UTF-8" standalone="no"?>
<!-- Created with Inkscape (http://www.inkscape.org/) -->

<svg
   width="160.13557mm"
   height="74.825218mm"
   viewBox="0 0 160.13557 74.825218"
   version="1.1"
   id="svg1"
   xml:space="preserve"
   inkscape:version="1.4 (e7c3feb100, 2024-10-09)"
   sodipodi:docname="exsyn-wave.svg"
   xmlns:inkscape="http://www.inkscape.org/namespaces/inkscape"
   xmlns:sodipodi="http://sodipodi.sourceforge.net/DTD/sodipodi-0.dtd"
   xmlns="http://www.w3.org/2000/svg"
   xmlns:svg="http://www.w3.org/2000/svg"><sodipodi:namedview
     id="namedview1"
     pagecolor="#ffffff"
     bordercolor="#000000"
     borderopacity="0.25"
     inkscape:showpageshadow="2"
     inkscape:pageopacity="0.0"
     inkscape:pagecheckerboard="0"
     inkscape:deskcolor="#d1d1d1"
     inkscape:document-units="mm"
     inkscape:zoom="0.7198092"
     inkscape:cx="288.27083"
     inkscape:cy="407.05231"
     inkscape:window-width="1848"
     inkscape:window-height="1011"
     inkscape:window-x="72"
     inkscape:window-y="32"
     inkscape:window-maximized="1"
     inkscape:current-layer="layer1" /><defs
     id="defs1" /><g
     inkscape:label="Layer 1"
     inkscape:groupmode="layer"
     id="layer1"
     transform="translate(-28.826062,-40.73138)"><path
       style="fill:#000000"
       d="m 159.81183,115.47611 c -1.51533,-0.46314 -2.23414,-2.02918 -1.54398,-3.36379 0.45153,-0.87316 2.03504,-1.25845 2.30294,-0.56033 0.0596,0.15542 -0.13446,0.51282 -0.49559,0.91255 -0.64169,0.71027 -0.65953,1.18732 -0.0565,1.51007 0.44147,0.23626 1.28782,-0.21544 1.42458,-0.76031 0.16986,-0.67678 -0.0766,-1.53902 -0.54528,-1.90768 -0.55077,-0.43324 -1.42238,-0.4354 -3.03111,-0.008 -1.81101,0.48167 -4.36874,0.70183 -5.89859,0.50772 -3.10176,-0.39356 -4.84208,-1.37301 -8.14249,-4.58257 -1.32881,-1.29223 -2.06097,-1.95848 -1.62702,-1.48057 0.81641,0.89914 0.99426,1.50638 0.54935,1.87563 -0.27917,0.23169 -0.6726,0.0676 -1.17879,-0.49177 -0.1815,-0.20056 -0.48104,-0.44509 -0.66562,-0.5434 -0.29679,-0.15805 -0.31,-0.14767 -0.11422,0.0897 0.30927,0.37498 0.18274,1.02091 -0.21485,1.09677 -0.17996,0.0343 -0.56574,-0.066 -0.85729,-0.22304 -0.50038,-0.26947 -0.55461,-0.26943 -0.96706,8.3e-4 -0.37114,0.24317 -0.51225,0.25512 -0.93675,0.0793 -0.40027,-0.1658 -0.55065,-0.1648 -0.75524,0.005 -0.20149,0.16723 -0.39414,0.17046 -0.91194,0.0153 -0.50963,-0.15269 -0.72927,-0.15124 -0.98187,0.007 -0.25769,0.16093 -0.46541,0.157 -0.99828,-0.0189 -0.53393,-0.17621 -0.77308,-0.18056 -1.15815,-0.0211 -0.39014,0.1616 -0.59629,0.15474 -1.05164,-0.035 -0.51387,-0.21412 -0.62055,-0.20533 -1.15071,0.0947 l -0.58432,0.33072 -1.30897,-0.7947 c -1.62325,-0.9855 -3.5664,-1.81414 -5.28023,-2.25172 -1.64009,-0.41875 -5.10567,-0.46436 -6.55717,-0.0863 -1.02512,0.26701 -3.29285,1.34867 -4.37484,2.0867 -1.63082,1.1124 -2.19501,1.18772 -2.285,0.30507 l -0.0512,-0.5025 -0.75093,0.59852 c -0.41302,0.32919 -0.91725,0.59926 -1.12053,0.60015 -0.40581,0.002 -0.79397,-0.55335 -0.64974,-0.92922 0.1337,-0.34841 0.0201,-0.30026 -0.83907,0.35553 -0.52512,0.40083 -0.91738,0.57646 -1.21128,0.54234 -0.38339,-0.0445 -0.4326,-0.12219 -0.4172,-0.65853 l 0.0175,-0.60806 -1.08087,0.74 c -0.9889,0.67702 -1.11108,0.72004 -1.43589,0.5055 -0.68245,-0.45076 -0.53307,-0.83314 0.72139,-1.8467 0.64701,-0.52276 1.17638,-0.9911 1.17638,-1.04074 0,-0.0497 -0.28159,0.13149 -0.62577,0.40253 -0.34418,0.27105 -1.32861,0.95319 -2.18762,1.51589 -1.49571,0.97976 -2.21341,1.2279 -2.44899,0.84672 -0.273755,-0.44294 0.151912,-1.01448 1.4664,-1.96893 2.71079,-1.96828 2.54617,-1.95686 -0.4593,0.0319 -2.965189,1.96206 -4.113942,2.43556 -4.571469,1.88427 -0.412629,-0.49719 -0.358974,-0.54375 3.486794,-3.02613 2.099685,-1.35531 4.370215,-2.93423 4.755905,-3.30723 0.29544,-0.28573 -0.26605,0.0704 -2.33624,1.482 -2.628014,1.7919 -5.072857,3.19939 -7.379514,4.24837 -2.270858,1.0327 -2.941745,1.17953 -3.198388,0.69999 -0.300508,-0.56151 0.194034,-0.92807 3.402336,-2.52189 2.601922,-1.29259 6.327866,-3.50755 6.841826,-4.06727 0.0918,-0.1 -0.047,-0.0487 -0.3085,0.11383 -4.578107,2.84643 -7.720517,4.25877 -11.20579,5.03639 -1.589157,0.35457 -5.969729,0.49486 -7.809073,0.25009 -1.963966,-0.26136 -3.942439,-0.8538 -6.168602,-1.84716 -3.62519,-1.61763 -5.966968,-3.27673 -9.754582,-6.910923 -1.396611,-1.34004 -2.608734,-2.43644 -2.693607,-2.43644 -0.08487,0 -0.203509,0.19601 -0.263637,0.43558 -0.09849,0.3924 0.118909,0.65449 2.192986,2.64386 2.884462,2.766673 4.138541,3.861783 5.723221,4.997733 1.597737,1.14531 3.989293,2.51062 5.171097,2.95211 1.057987,0.39523 1.503852,0.74286 1.503852,1.1725 0,0.4843 -0.564389,0.68813 -1.332636,0.48126 -2.853303,-0.76832 -7.227461,-3.76407 -11.323259,-7.75502 -2.25139,-2.193763 -2.40925,-2.314663 -2.629278,-2.013763 -0.360375,0.49285 -0.294984,0.65979 0.558567,1.42601 2.053891,1.843773 7.241876,7.132153 7.326424,7.468213 0.103719,0.41227 -0.183783,0.87392 -0.544242,0.87392 -0.125051,0 -2.03348,-1.72714 -4.240951,-3.83809 -2.207472,-2.11095 -4.077295,-3.8381 -4.155162,-3.8381 -0.07787,0 -0.260132,0.18094 -0.405031,0.40208 -0.257864,0.39355 -0.243235,0.41923 0.68939,1.20984 2.134276,1.80929 4.371997,3.93407 4.697012,4.45996 0.352286,0.57001 0.450982,1.18568 0.213592,1.33239 -0.26992,0.16682 -1.207445,-0.45729 -2.644209,-1.76024 -0.813539,-0.73778 -2.103557,-1.87113 -2.866705,-2.51857 l -1.387542,-1.17716 -0.413982,0.41399 -0.413982,0.41398 1.958121,1.57387 c 2.200696,1.76885 2.652721,2.27902 2.485661,2.80538 -0.207193,0.65281 -0.824837,0.41927 -2.571637,-0.97235 -0.91554,-0.72938 -2.040484,-1.59618 -2.499876,-1.92622 -0.830556,-0.59669 -0.838757,-0.59861 -1.456743,-0.3404 -0.341817,0.14282 -0.591183,0.28838 -0.554146,0.32346 0.03704,0.0351 0.689986,0.52421 1.450997,1.08695 1.458255,1.07832 1.699906,1.39088 1.414551,1.82958 -0.304321,0.46786 -0.907634,0.25331 -2.937957,-1.0448 -1.086196,-0.69446 -2.212491,-1.29685 -2.502877,-1.33863 -0.868724,-0.125 -3.281391,-0.35976 -3.281391,-0.3193 0,0.0207 0.694612,0.37117 1.543582,0.77887 2.222368,1.06727 2.910595,1.82206 2.116981,2.32175 -0.193691,0.12195 -0.817489,-0.0828 -2.419669,-0.79401 -4.599854,-2.04203 -7.580244,-2.75545 -11.511174,-2.75545 -3.756959,0 -6.044616,0.51157 -9.403505,2.1028 -1.045953,0.49551 -1.928298,0.90093 -1.960766,0.90093 -0.03247,0 -0.05903,-0.38034 -0.05903,-0.84519 v -0.8452 l 1.376708,-0.64493 c 4.968374,-2.32748 10.079481,-2.85552 15.602693,-1.61195 0.94075,0.21181 1.705566,0.3418 1.69959,0.28886 -0.0095,-0.0843 -1.622994,-1.19781 -2.9841,-2.05947 -0.773232,-0.48949 -3.823314,-0.71827 -6.381653,-0.47865 -3.132709,0.29341 -4.99042,0.81171 -8.687462,2.42379 l -0.625776,0.27287 v -0.83871 -0.83871 l 0.959524,-0.42844 c 3.172656,-1.41662 6.058283,-2.040563 10.09586,-2.182963 1.629104,-0.0575 2.962008,-0.12157 2.962008,-0.14248 0,-0.19767 -0.581554,-1.35837 -0.727968,-1.45292 -0.328381,-0.21208 -4.125238,-0.13632 -5.780107,0.11532 -2.156606,0.32794 -4.487687,0.95479 -6.136566,1.6502 l -1.372751,0.578963 v -0.867653 -0.86764 l 1.460145,-0.53845 c 3.161719,-1.16594 5.092296,-1.54483 8.549395,-1.67789 l 2.750533,-0.10586 -0.0546,-0.75083 c -0.03003,-0.41295 -0.141372,-0.80604 -0.247427,-0.87353 -0.106055,-0.0675 -1.028214,-0.12386 -2.049242,-0.12526 -2.28759,-0.003 -5.295181,0.4858 -7.905698,1.28525 -1.055476,0.32323 -2.054981,0.62621 -2.221122,0.67328 -0.266174,0.0754 -0.295922,-0.01 -0.25031,-0.71662 l 0.05176,-0.80219 1.668738,-0.5647 c 2.207613,-0.74705 4.895503,-1.18195 8.259865,-1.33645 l 2.753033,-0.12643 0.149964,-0.7126 c 0.08248,-0.39193 0.102906,-0.75966 0.04539,-0.81717 -0.177316,-0.17732 -5.787152,-0.0955 -7.251518,0.1058 -0.760773,0.10456 -2.356503,0.47783 -3.546067,0.82949 l -2.162844,0.63937 v -0.80922 c 0,-0.97531 -0.01077,-0.96812 2.331284,-1.55635 2.95651,-0.74255 5.37069,-0.985 8.71473,-0.87519 l 2.95264,0.097 0.530107,-0.66932 c 0.291559,-0.36812 0.492999,-0.70642 0.447644,-0.75178 -0.415128,-0.41512 -6.637934,-0.70318 -9.066641,-0.41969 -1.430214,0.16694 -4.202817,0.72516 -5.534298,1.11425 -0.350642,0.10247 -0.375466,0.0593 -0.375466,-0.65361 v -0.76333 l 1.126397,-0.33085 c 2.354147,-0.69147 3.899963,-0.8948 7.384162,-0.97127 2.635173,-0.0578 3.823363,-0.0127 5.173086,0.19661 3.160163,0.49003 3.168799,0.49012 4.171843,0.0406 l 0.917805,-0.41128 -0.917805,-0.27571 c -1.816188,-0.5456 -4.969,-1.09388 -7.39788,-1.28649 -3.187536,-0.25278 -6.926171,0.0346 -10.091512,0.77581 -0.365175,0.0855 -0.382225,0.0499 -0.333747,-0.69689 0.06019,-0.92718 -0.0021,-0.89904 2.971378,-1.34299 2.625141,-0.39194 7.734861,-0.38626 10.34617,0.0115 7.805676,1.18899 13.142855,4.12003 14.708188,8.07737 0.537335,1.35844 0.545559,3.48437 0.01762,4.55571 -1.371456,2.78308 -4.191187,3.81357 -6.929169,2.53231 -1.823707,-0.85342 -2.708557,-2.41842 -2.598592,-4.59603 0.05135,-1.01688 0.144263,-1.35526 0.521672,-1.89986 0.693112,-1.00016 1.513008,-1.38899 2.928866,-1.38899 0.647496,0 1.216428,0.0634 1.264294,0.14081 0.04787,0.0774 0.01122,0.41537 -0.08143,0.75093 -0.164685,0.59644 -0.186814,0.61012 -0.987134,0.61012 -1.551542,0 -2.169367,0.61782 -2.169367,2.16936 0,1.71804 1.097425,2.94435 2.881832,3.22028 0.807533,0.12487 2.124599,-0.26474 2.791279,-0.82572 1.119318,-0.94184 1.54625,-2.57871 1.088236,-4.17233 -0.555819,-1.93391 -1.814929,-3.37935 -3.737031,-4.29006 -0.969245,-0.45923 -1.279831,-0.52368 -2.523695,-0.52368 -1.745636,0 -2.931486,0.48726 -4.092085,1.68143 -1.60927,1.65582 -2.250859,3.07827 -2.247135,4.98209 0.0047,2.41236 1.312197,4.98088 3.369554,6.619423 1.689962,1.34593 4.807591,2.49176 6.759008,2.48416 3.822226,-0.0149 7.582125,-3.38484 8.473968,-7.595083 0.852065,-4.02245 -0.356987,-8.03648 -3.31016,-10.98965 -2.816514,-2.81652 -8.924001,-5.83261 -14.574507,-7.19741 -3.020512,-0.72956 -4.817448,-0.94978 -7.895414,-0.96759 -2.762766,-0.016 -3.581504,0.0666 -6.476434,0.65363 l -0.552417,0.11201 0.0518,-0.81348 0.0518,-0.81349 1.668738,-0.2869 c 2.22853,-0.38314 7.602668,-0.40491 10.055322,-0.0407 7.072759,1.0502 15.366299,4.82731 21.650685,9.86032 0.917805,0.73505 3.274462,2.86991 5.237014,4.74415 5.02938,4.80304 6.930806,6.28305 10.172324,7.91785 3.808536,1.920773 7.797061,2.676243 11.457331,2.170153 1.131326,-0.15642 1.078768,-0.16516 -1.668737,-0.27727 -2.279068,-0.093 -3.138444,-0.199553 -4.37072,-0.541883 -2.327945,-0.64672 -3.961332,-1.32681 -6.052717,-2.52017 -3.142674,-1.79322 -5.368598,-3.62143 -10.268599,-8.43384 -2.478243,-2.43395 -5.181735,-4.95961 -6.00776,-5.61258 -4.608293,-3.64285 -10.599036,-6.75351 -15.99794,-8.30681 -5.249758,-1.5104 -10.730052,-1.8037 -15.499475,-0.82951 -0.447238,0.0913 -0.458902,0.0744 -0.458902,-0.66728 0,-0.65274 0.05342,-0.77312 0.375466,-0.8461 1.147893,-0.26013 2.831691,-0.43202 5.131366,-0.52384 2.895472,-0.11561 5.333079,0.13009 8.677434,0.87465 5.579231,1.24211 11.467132,3.92953 16.614508,7.58339 2.944487,2.09014 3.525948,2.60318 8.499987,7.4997 5.70705,5.61812 8.317333,7.57354 12.384545,9.27756 2.894197,1.21257 3.770555,1.4031 6.805933,1.47968 2.43412,0.0614 2.522567,0.0542 1.001242,-0.0817 -2.387841,-0.21338 -3.632844,-0.45104 -5.330924,-1.01765 -4.468074,-1.49087 -9.347847,-4.85342 -13.934321,-9.60184 -6.691936,-6.92823 -7.986428,-8.10658 -11.509161,-10.47655 -4.031721,-2.7124 -10.028808,-5.47401 -14.149356,-6.51565 -4.451443,-1.12529 -9.471136,-1.35768 -13.940943,-0.6454 l -0.625776,0.0997 v -0.75844 -0.75843 l 0.876087,-0.19904 c 0.481848,-0.10947 2.415497,-0.23748 4.296998,-0.28446 2.687074,-0.0671 3.832576,-0.0252 5.339959,0.19522 5.708107,0.83478 12.076009,3.21983 17.338714,6.49409 4.134676,2.57244 5.546582,3.77092 11.613877,9.85832 5.956595,5.97633 7.411751,7.21709 10.614069,9.05027 3.11642,1.78401 5.890533,2.70225 8.492972,2.81119 l 1.5853,0.0664 -1.168116,-0.1606 c -5.002437,-0.68777 -9.313935,-2.97287 -14.884203,-7.88864 -2.113258,-1.86495 -2.186635,-1.94074 -6.475633,-6.68852 -4.848284,-5.36689 -8.935094,-8.53516 -14.768324,-11.44901 -4.952044,-2.47368 -9.974886,-3.9071 -15.222218,-4.34411 -2.12323,-0.17683 -3.617277,-0.11527 -6.763395,0.27869 l -0.876087,0.10971 v -0.75473 c 0,-0.68366 0.04321,-0.76576 0.458902,-0.87195 0.252397,-0.0645 2.163331,-0.15629 4.246521,-0.20404 3.336435,-0.0765 4.053664,-0.0443 6.02104,0.27041 4.573626,0.73154 8.223615,1.93041 12.832494,4.21495 3.336329,1.65376 7.034646,4.04762 9.565476,6.19158 1.854534,1.57105 4.38027,4.12713 7.748636,7.84175 4.494363,4.95635 8.511035,8.15204 12.733254,10.13064 1.639468,0.76828 3.978939,1.47285 5.281324,1.59055 0.776584,0.0702 0.648366,0.0155 -0.750552,-0.32007 -6.144588,-1.474 -12.043821,-5.88461 -19.329586,-14.45194 -1.3659,-1.60616 -3.316009,-3.74695 -4.333575,-4.75731 -6.338789,-6.2939 -15.372089,-10.99435 -23.894881,-12.43362 -2.349028,-0.39669 -6.324484,-0.51837 -9.035471,-0.27656 l -1.543582,0.13768 v -0.74021 -0.74022 l 0.876087,-0.10897 c 4.599626,-0.57212 9.762855,-0.0927 14.85824,1.37961 4.932914,1.42537 10.500691,4.24653 15.094373,7.64824 3.394719,2.51385 5.396369,4.50299 9.967026,9.90472 0.73155,0.86457 2.533786,2.7744 4.004969,4.24408 3.12311,3.11991 6.115868,5.4508 8.732638,6.80137 1.696097,0.8754 4.177494,1.87357 4.315207,1.73586 0.03525,-0.0352 -0.294285,-0.19781 -0.732289,-0.36127 -1.882526,-0.70251 -5.066123,-2.48163 -6.875816,-3.84247 -3.635732,-2.73398 -6.421805,-5.57503 -11.615746,-11.84496 -2.920064,-3.525 -4.599682,-5.31037 -6.68314,-7.10393 -6.828433,-5.87832 -15.422264,-9.71425 -23.931611,-10.68209 -1.760031,-0.20018 -7.129214,-0.12931 -7.717909,0.10187 -0.254579,0.1 -0.292029,0.007 -0.292029,-0.72331 v -0.83798 l 1.268563,-0.11888 c 1.934362,-0.18126 7.447764,0.0207 9.161044,0.33564 6.224826,1.14414 12.075722,3.49671 17.438304,7.0117 4.383091,2.87297 7.283677,5.46548 10.644419,9.51387 4.210198,5.07166 5.508023,6.54741 7.711691,8.76894 2.087367,2.10429 5.103557,4.67148 6.324538,5.38304 0.800153,0.46632 0.612076,0.21485 -0.358803,-0.47974 -3.791678,-2.71264 -8.172607,-7.29297 -13.409382,-14.01973 -1.250103,-1.60579 -2.823837,-3.51968 -3.497185,-4.25309 -6.412754,-6.98476 -14.803804,-11.71123 -24.498513,-13.7994 -1.88215,-0.4054 -2.330925,-0.43664 -6.411541,-0.44633 l -4.387736,-0.0104 0.04902,-0.6675 0.04902,-0.66749 1.001243,-0.10704 c 1.613011,-0.17245 4.226216,-0.1569 6.187064,0.0368 7.90336,0.7808 15.384415,3.73758 22.765527,8.99777 2.281833,1.62617 4.408553,2.59667 6.424638,2.93182 0.81099,0.13482 0.831854,0.1586 -1.501864,-1.71161 -3.743455,-2.99996 -8.56024,-6.01649 -12.932713,-8.09917 -4.761766,-2.26811 -4.583265,-2.16548 -4.641268,-2.66854 -0.112161,-0.97276 0.955354,-0.76178 4.474394,0.8843 5.625036,2.63119 11.072915,6.12641 15.610741,10.01543 0.922232,0.79037 1.837187,1.52289 2.033233,1.62781 0.424475,0.22717 1.212757,0.25331 1.212757,0.0402 0,-0.18918 -2.792401,-2.8407 -4.678205,-4.44219 -2.018652,-1.71431 -4.849379,-3.75047 -7.956592,-5.72321 -2.960926,-1.87987 -3.203632,-2.08662 -2.941388,-2.5056 0.35432,-0.56609 1.018044,-0.42622 2.698859,0.56874 4.626512,2.73869 8.81195,5.94715 12.960763,9.93544 0.917805,0.8823 1.839248,1.69302 2.047651,1.80161 0.375214,0.19551 0.705765,0.12709 0.705765,-0.14608 0,-0.0778 -0.724933,-0.94322 -1.610962,-1.92309 -1.795377,-1.98552 -5.198011,-5.06496 -7.984277,-7.2259 -3.109764,-2.41183 -3.632289,-3.06215 -2.657076,-3.30691 0.344669,-0.0865 0.700951,0.0767 1.793893,0.82158 2.693856,1.83605 5.096016,3.91309 8.761052,7.57529 3.35275,3.35016 4.033602,3.91813 4.033602,3.36489 0,-0.57826 -3.278374,-4.24044 -7.052179,-7.87779 -3.100816,-2.98869 -3.325503,-3.24483 -3.143988,-3.58399 0.112982,-0.21111 0.355377,-0.36527 0.574331,-0.36527 0.443356,0 2.018444,1.26312 4.312255,3.45814 0.889753,0.85144 1.668062,1.54807 1.729574,1.54807 0.06151,0 0.06096,-0.20272 -0.0012,-0.4505 -0.06219,-0.24777 -0.111494,-0.94867 -0.109569,-1.55754 0.0073,-2.3209 1.246077,-4.20506 3.574908,-5.43755 1.119344,-0.59239 1.315392,-0.63987 2.897505,-0.70173 1.527238,-0.0597 1.785888,-0.0255 2.586543,0.34193 1.388866,0.63739 2.699167,1.94708 3.432906,3.43132 0.60599,1.22581 0.629312,1.3388 0.686257,3.32471 l 0.05895,2.05577 1.81977,-1.71304 c 4.253878,-4.00438 6.813439,-5.40155 10.494785,-5.72872 3.380033,-0.30039 6.47937,0.90111 9.90323,3.83913 1.73634,1.48996 1.91104,1.59498 2.65319,1.59498 0.8092,0 1.46061,-0.71481 1.46061,-1.60278 0,-0.36669 -0.0901,-0.75682 -0.20025,-0.86695 -0.29795,-0.29796 -1.04504,-0.2422 -1.35581,0.10119 -0.24725,0.27321 -0.24862,0.33595 -0.0146,0.67007 0.59735,0.85283 -0.18952,1.65118 -0.99948,1.01406 -0.23215,-0.18261 -0.49835,-0.6082 -0.59156,-0.94576 -0.23415,-0.84802 0.25028,-1.8439 1.14023,-2.34408 1.12132,-0.63022 2.29103,-0.36329 3.10932,0.70954 0.69082,0.90571 0.73503,1.92691 0.1341,3.09784 -0.55339,1.07829 -1.50077,1.66873 -2.67756,1.66873 -1.03238,0 -1.91486,-0.48528 -3.76157,-2.06855 -2.57773,-2.21 -4.79914,-3.22821 -7.381789,-3.38352 -1.906226,-0.11464 -3.302205,0.19713 -5.365561,1.19832 -1.848113,0.89675 -3.46774,2.15899 -6.042859,4.70944 -6.478501,6.41644 -13.067928,9.18928 -20.325605,8.55304 -1.067507,-0.0936 -1.971629,-0.13944 -2.009161,-0.10191 -0.03753,0.0375 0.518119,0.72367 1.23478,1.52475 l 1.30302,1.45651 1.542504,-0.10675 c 3.196645,-0.22123 6.13078,-1.05383 9.288159,-2.63565 3.058976,-1.53251 4.38197,-2.57045 8.359815,-6.55858 2.701885,-2.70887 4.059645,-3.93887 5.142315,-4.65844 3.366871,-2.23771 6.589352,-2.85776 9.709442,-1.86823 2.22174,0.70462 3.34929,1.49408 7.75963,5.43293 2.71682,2.42638 3.74597,3.01223 5.29147,3.01223 1.69157,0 2.5516,-0.63491 2.5516,-1.88371 0,-0.86264 -0.22315,-1.2245 -0.89106,-1.44493 -0.69621,-0.22977 -1.03224,-0.11531 -1.80054,0.61334 -0.77701,0.73691 -1.37234,0.71366 -1.44736,-0.0565 -0.0946,-0.97106 1.43972,-2.22705 2.72053,-2.22705 1.85008,0 3.38059,1.95984 2.96133,3.79202 -0.0993,0.43405 -0.14278,0.82684 -0.0966,0.87287 0.0462,0.046 1.78598,0.0828 3.86615,0.0818 3.16523,-0.002 3.98583,-0.0537 5.03094,-0.31956 3.25765,-0.82862 5.47739,-2.24245 7.10772,-4.52715 1.95821,-2.74418 2.63652,-5.75898 1.98783,-8.83503 -0.71433,-3.38726 -3.33506,-6.02475 -6.79769,-6.84116 -1.35889,-0.32039 -3.80254,-0.31819 -5.04159,0.005 -2.27698,0.59308 -4.60261,2.40946 -5.48532,4.28417 -1.53975,3.27018 -0.21344,7.50189 2.81918,8.99484 0.98577,0.48529 1.27102,0.54748 2.55201,0.55633 1.8196,0.0126 3.12688,-0.39324 4.2709,-1.32582 2.15835,-1.75944 2.54543,-4.19873 0.94752,-5.97111 -1.9211,-2.13086 -4.91976,-1.48808 -5.69676,1.22115 -0.22077,0.7698 0.19877,1.57822 1.16959,2.2537 0.80651,0.56116 0.98866,0.94197 0.6473,1.35328 -0.48845,0.58855 -1.93718,-0.0883 -2.8315,-1.32285 -0.42106,-0.58126 -0.48529,-0.81733 -0.48211,-1.77197 0.006,-1.79856 0.87056,-3.22367 2.44225,-4.02564 1.08585,-0.55406 2.93974,-0.57633 4.09147,-0.0491 1.04555,0.47858 2.20465,1.57477 2.67321,2.52812 0.5308,1.07999 0.53227,3.40459 0.003,4.57692 -1.61408,3.57449 -6.81268,5.17519 -10.6042,3.26514 -1.88493,-0.94957 -3.17192,-2.63014 -3.87536,-5.06052 -1.37062,-4.7354 1.82577,-9.70161 7.10168,-11.03385 0.85507,-0.21592 1.52624,-0.25225 3.1706,-0.17166 2.55257,0.12511 3.20249,0.27276 4.98489,1.13252 2.38959,1.15264 4.05461,3.0985 5.12082,5.98458 0.42204,1.1424 0.46287,1.45531 0.46817,3.58779 0.006,2.25249 -0.0154,2.39727 -0.58663,4.03914 -0.78846,2.26636 -1.44139,3.31071 -3.18986,5.10209 l -1.46286,1.49877 0.6526,-0.10435 c 0.35893,-0.0574 1.54287,-0.36805 2.63098,-0.69034 5.85352,-1.73378 7.18818,-2.1037 8.68401,-2.40692 8.53155,-1.72943 16.06518,0.12007 21.06724,5.17199 2.81341,2.84145 4.32867,5.43987 6.31208,10.8242 0.84346,2.28972 1.47474,3.17991 2.62726,3.70481 0.94025,0.42822 1.86295,0.38979 2.88639,-0.12021 0.96561,-0.48118 1.50733,-1.12578 1.71659,-2.04261 0.41251,-1.80725 -1.26069,-3.3255 -2.90689,-2.63768 -1.06358,0.4444 -1.20711,1.40599 -0.3601,2.41261 0.45321,0.53861 0.42969,0.83756 -0.0915,1.16305 -0.42415,0.26488 -0.8264,0.0651 -1.41024,-0.70033 -0.97849,-1.28285 -0.56746,-3.25602 0.84577,-4.06023 1.44884,-0.82449 4.10038,-0.2702 4.90049,1.02442 0.87796,1.42056 0.8123,3.40698 -0.15683,4.74482 -1.07071,1.47807 -3.14604,2.35054 -4.83106,2.03098 -0.48867,-0.0927 -0.91287,-0.1685 -0.94268,-0.1685 -0.0298,0 0.24793,0.28182 0.61718,0.62626 2.00213,1.86756 0.0422,5.03462 -2.70747,4.37499 -0.56156,-0.13471 -1.07418,-0.42857 -1.64869,-0.9451 -0.52436,-0.47145 -0.83373,-0.65603 -0.83373,-0.49744 0,0.13869 0.42573,1.10309 0.94606,2.14311 0.85933,1.71757 1.10795,2.05293 2.7117,3.65773 1.93834,1.93961 3.63444,3.10182 5.47437,3.75117 0.90731,0.32021 1.46973,0.39971 2.84771,0.40253 1.86661,0.004 2.4563,-0.1844 3.73858,-1.19335 1.50785,-1.18645 2.76884,-3.99225 2.58682,-5.75588 -0.19546,-1.89377 -1.59012,-3.94754 -3.21475,-4.73401 -3.06996,-1.48615 -7.0643,0.73554 -7.07665,3.93609 -0.011,2.85591 2.69332,4.85565 5.09265,3.76579 1.881,-0.85443 2.29201,-3.11186 0.75514,-4.14756 -0.85636,-0.5771 -1.39944,-0.49983 -2.03366,0.28938 -0.56338,0.70105 -1.19544,0.88581 -1.38051,0.40354 -0.48194,-1.25591 0.80064,-2.5729 2.50566,-2.5729 2.00029,0 3.75637,2.31349 3.31334,4.36505 -0.4833,2.23805 -2.52764,3.6353 -5.02551,3.43479 -1.74655,-0.14019 -3.44545,-1.45392 -4.32602,-3.34522 -0.58173,-1.24944 -0.57716,-3.21297 0.0102,-4.3917 0.87919,-1.76432 2.1271,-2.80281 4.10935,-3.41975 1.33831,-0.41653 2.71464,-0.3991 4.10578,0.052 0.94978,0.30798 1.30516,0.54074 2.22937,1.46014 0.73938,0.73553 1.28593,1.47634 1.66874,2.26188 0.55187,1.13242 0.56926,1.22969 0.56926,3.18362 v 2.01551 l -0.70742,1.42719 c -0.91169,1.8393 -2.12227,3.07472 -3.84915,3.92814 -1.23146,0.60858 -1.31605,0.62567 -3.0276,0.61163 -1.45429,-0.0119 -1.99312,-0.0936 -3.09575,-0.46932 -4.32659,-1.47426 -8.00067,-4.93912 -9.93033,-9.36488 -0.56,-1.28438 -0.83302,-1.45571 -0.83302,-0.52274 0,0.77369 -0.44238,2.3871 -0.93129,3.3965 -0.54625,1.12779 -2.45038,3.15192 -3.63441,3.86346 -3.18112,1.91169 -6.98403,2.18468 -10.0353,0.72038 -4.02032,-1.92933 -6.36804,-5.75444 -5.75664,-9.37921 0.72722,-4.31143 4.41585,-7.15512 8.46925,-6.52921 2.69647,0.41637 5.17011,2.13495 6.26026,4.34937 0.4815,0.97805 0.53785,1.24428 0.53252,2.51574 -0.007,1.64334 -0.33511,2.5526 -1.31162,3.63348 -1.15409,1.27744 -3.35878,1.83247 -5.17808,1.30359 -1.13302,-0.32938 -2.30735,-1.38627 -2.89812,-2.6083 -0.48779,-1.00901 -0.50307,-2.57507 -0.0341,-3.49435 0.70785,-1.3875 3.20092,-2.36414 3.57128,-1.39902 0.16787,0.43749 -0.20941,0.87938 -1.0651,1.24749 -0.94755,0.40763 -1.33856,0.90627 -1.33856,1.70703 0,1.78669 1.47788,3.2715 3.26583,3.28114 1.0779,0.006 2.39041,-0.75149 2.98192,-1.72053 0.67874,-1.11195 0.70348,-2.63966 0.0627,-3.86938 -0.58873,-1.12975 -1.90844,-2.32607 -3.26941,-2.96372 -0.99296,-0.46522 -1.29462,-0.52632 -2.62381,-0.53142 -1.24307,-0.005 -1.6379,0.0612 -2.29129,0.38295 -1.25511,0.61804 -2.38706,1.74877 -3.00185,2.99862 -0.51341,1.04373 -0.54745,1.222 -0.54745,2.86769 0,1.53951 0.0529,1.86737 0.43157,2.67258 0.23736,0.5048 0.8381,1.36279 1.33499,1.90665 1.77209,1.93964 3.93618,2.94399 6.41026,2.97499 3.63855,0.0456 6.79105,-1.7945 8.30349,-4.84672 0.70557,-1.42391 0.70767,-1.43371 0.70206,-3.27637 -0.006,-2.09484 -0.32625,-3.39116 -1.40317,-5.68629 -1.59809,-3.40586 -4.11514,-5.49458 -7.73215,-6.41634 -2.76825,-0.70546 -5.82055,-0.60741 -10.08449,0.32396 -2.25574,0.49272 -7.32076,2.0892 -7.48831,2.36029 -0.0512,0.0829 0.36165,0.64708 0.91752,1.25372 2.10622,2.29855 4.53244,6.44165 5.61651,9.59091 0.23308,0.67713 0.79005,3.07093 1.2377,5.31955 1.03548,5.20135 1.78166,7.78754 2.9129,10.095863 1.08652,2.21706 2.14677,3.46498 3.6247,4.26626 1.03711,0.5623 1.09469,0.57308 3.05949,0.57308 1.80831,0 2.09222,-0.0421 2.9279,-0.43406 1.98332,-0.93025 2.90541,-2.25905 2.88799,-4.16181 -0.0185,-2.015303 -1.19631,-3.879433 -2.95617,-4.678563 -1.00296,-0.45543 -2.77854,-0.43468 -3.62736,0.0424 -1.83551,1.03161 -2.20403,3.525133 -0.75642,5.118163 0.6945,0.76428 1.64432,1.09485 3.00089,1.04441 0.68238,-0.0254 1.61033,-0.99233 1.61033,-1.67802 0,-0.79808 -0.41782,-1.457063 -1.05774,-1.668253 -0.98491,-0.32505 -1.73758,0.15768 -1.72855,1.108623 0.0109,1.14581 -0.90448,1.4452 -1.32698,0.43401 -0.54532,-1.305123 0.25337,-2.666883 1.80431,-3.076313 1.8883,-0.49849 3.79632,1.07564 3.80716,3.140953 0.0103,1.95857 -1.43813,3.22318 -3.69166,3.22318 -1.47024,0 -2.31573,-0.3637 -3.42558,-1.47355 -1.049,-1.049 -1.38146,-1.83851 -1.38599,-3.291313 -0.004,-1.38208 0.44986,-2.46948 1.45861,-3.49233 0.97059,-0.98416 1.88493,-1.33541 3.47366,-1.33443 1.22121,7.5e-4 1.46763,0.0599 2.61736,0.62811 2.00937,0.99308 3.25167,2.67779 3.65247,4.953193 0.23086,1.31058 -0.0187,2.92635 -0.60791,3.93648 -0.51271,0.87892 -1.75503,2.01743 -2.63959,2.41902 -0.98686,0.44804 -0.53657,0.40548 2.13257,-0.20159 2.18829,-0.4977 2.40222,-0.51803 3.4895,-0.33158 1.52338,0.26123 2.36578,0.65405 3.24639,1.51384 0.87954,0.85874 1.19564,1.5677 1.19564,2.6816 0,1.08604 -0.30282,1.79424 -1.04633,2.44705 -1.58821,1.39447 -4.17058,0.52785 -4.71823,-1.58338 -0.15415,-0.59429 -0.17783,-1.01309 -0.0729,-1.28914 0.30146,-0.79289 1.18184,-0.35653 1.40536,0.69655 0.13151,0.6196 0.66758,1.16219 1.3044,1.32025 1.00505,0.24945 1.98846,-1.07654 1.62197,-2.18701 -0.24694,-0.74822 -1.31937,-1.64637 -2.29766,-1.92426 -1.25984,-0.35786 -2.428,-0.23875 -5.63357,0.57442 -5.15068,1.30659 -6.90345,1.50489 -9.13045,1.03297 -2.42984,-0.51489 -4.4362,-1.80529 -6.16819,-3.96709 -1.70575,-2.12905 -2.70596,-4.40442 -4.12681,-9.388063 -2.08767,-7.32249 -6.25889,-13.02375 -11.83422,-16.17511 l -1.05596,-0.59687 -1.60996,0.59293 c -0.88547,0.32611 -1.72259,0.63469 -1.86026,0.68573 -0.28588,0.10598 -0.36319,0.0671 1.86045,0.93514 2.7812,1.08567 5.90388,3.3772 8.09397,5.93964 2.6286,3.0755 4.49956,6.54068 6.16161,11.41182 1.72267,5.048773 2.65927,6.748103 4.84359,8.788023 2.79748,2.61254 6.09379,3.29077 10.93763,2.25047 2.40646,-0.51683 3.35273,-0.48078 4.28189,0.16313 1.29466,0.8972 1.72529,2.5559 1.04974,4.04339 -0.48207,1.06147 -1.84235,1.72548 -2.88313,1.40738 z m -10.27411,-9.41205 c -2.76287,-2.90859 -4.40621,-6.426723 -5.77802,-12.369853 -0.9466,-4.101 -2.08234,-6.91751 -3.91068,-9.69804 -1.63273,-2.48305 -3.7057,-4.79594 -5.55747,-6.20066 l -0.93664,-0.71052 -1.27444,0.60523 c -0.70094,0.33287 -1.27443,0.65443 -1.27443,0.71458 0,0.0601 0.40417,0.35111 0.89815,0.64657 1.31848,0.78862 3.3906,2.5083 4.59978,3.81741 3.21841,3.4844 5.40354,7.38268 6.76962,12.07698 1.76933,6.079993 2.88584,8.487233 4.84536,10.446753 0.69938,0.69937 2.36789,1.90191 2.63889,1.90191 0.0817,0 -0.37732,-0.55366 -1.02012,-1.23036 z m 1.15724,-1.18279 c -1.12264,-1.20011 -1.95383,-2.5822 -2.78991,-4.63904 -0.85,-2.091113 -1.35288,-3.987113 -2.25566,-8.504573 -0.45349,-2.26924 -1.04895,-4.82649 -1.32324,-5.68277 -0.54205,-1.69216 -1.68386,-4.02994 -2.87479,-5.88595 -0.85383,-1.33065 -3.49233,-4.48945 -3.8715,-4.63495 -0.20013,-0.0768 -2.1777,0.58938 -2.41153,0.81236 -0.0329,0.0314 0.83543,0.94378 1.92966,2.02752 2.20058,2.17947 3.20896,3.46217 4.73288,6.02044 1.44814,2.43106 2.20805,4.41995 3.33011,8.71584 1.48665,5.69172 2.25208,7.677983 3.89061,10.095863 0.57409,0.84716 2.36239,2.75342 2.58303,2.75342 0.0379,0 -0.38495,-0.48517 -0.93966,-1.07816 z m -36.89216,-0.33716 c 1.67266,-0.86072 3.14759,-1.27319 5.38071,-1.50474 l 2.02729,-0.21021 -1.50852,-0.0202 c -1.6,-0.0214 -2.74298,0.20501 -4.61602,0.91432 -1.02128,0.38676 -2.98101,1.51384 -3.38726,1.94809 -0.0918,0.0981 0.096,0.0122 0.41718,-0.19078 0.32123,-0.20303 1.08021,-0.62446 1.68662,-0.93651 z m -24.856577,0.42398 c 2.465332,-0.42147 4.361798,-1.09778 7.233515,-2.57959 2.301525,-1.18759 6.473752,-3.811543 6.924882,-4.355113 0.12711,-0.15316 -0.70315,0.33131 -1.84502,1.0766 -2.555228,1.667793 -5.843178,3.310383 -8.167025,4.080083 -5.6138,1.85939 -11.153383,1.48553 -16.751644,-1.13056 -3.336521,-1.55916 -5.545381,-3.216153 -9.640211,-7.231673 -1.712133,-1.67898 -3.167274,-3.05268 -3.233647,-3.05268 -0.06637,0 -0.07174,0.30604 -0.01192,0.6801 0.09771,0.61102 0.407159,0.97119 3.046791,3.54607 1.615921,1.57628 3.503472,3.29997 4.194558,3.83042 3.364589,2.582513 7.58509,4.548913 11.141252,5.190893 1.942663,0.35069 4.869421,0.32824 7.108473,-0.0546 z m 15.087837,-1.3631 c 0.0623,-0.10081 -0.0837,-0.0542 -0.32446,0.10352 -0.24075,0.15775 -0.43773,0.31837 -0.43773,0.35693 0,0.12071 0.64313,-0.26781 0.76219,-0.46045 z m 11.89406,-1.82502 c 0.78199,-0.2349 1.95944,-0.41173 3.25404,-0.48869 l 2.02864,-0.1206 -1.82495,-0.0253 c -1.1735,-0.0163 -2.21595,0.0689 -2.92029,0.23848 -1.15964,0.27925 -4.01958,1.59165 -4.35857,2.0001 -0.11059,0.13325 0.42821,-0.0903 1.19733,-0.49681 0.76912,-0.4065 1.94983,-0.90473 2.6238,-1.10718 z m 6.15529,1.24178 c -0.0554,-0.0555 -0.19938,-0.0614 -0.31984,-0.0132 -0.13312,0.0533 -0.0936,0.0928 0.10082,0.10082 0.17591,0.007 0.27447,-0.0322 0.21902,-0.0876 z m -31.139753,-0.79484 c 3.967388,-1.05298 7.186029,-2.710223 12.077903,-6.218743 2.86809,-2.05703 2.93755,-2.09429 3.78576,-2.03122 1.28179,0.0953 1.3055,1.04411 0.035,1.40057 -0.88775,0.24908 -1.36156,1.02731 -1.06353,1.74682 0.41284,0.99669 1.82832,1.57506 2.83461,1.15824 0.86088,-0.35659 1.24909,-1.08642 1.24957,-2.3492 3.5e-4,-0.94294 -0.0688,-1.19819 -0.4885,-1.80444 -1.03495,-1.49481 -2.86457,-1.98574 -4.48217,-1.20267 -0.41403,0.20043 -1.56753,1.11869 -2.56331,2.04058 -4.890165,4.52724 -8.653223,6.422713 -13.87073,6.986733 -4.754024,0.51391 -10.258425,-1.19677 -15.262697,-4.743423 -1.836491,-1.30156 -3.228767,-2.53469 -7.98414,-7.07149 -1.66495,-1.58842 -3.061697,-2.85352 -3.103883,-2.81133 -0.04219,0.0422 0.08126,0.44068 0.274329,0.88555 0.283092,0.65231 1.113814,1.53552 4.292296,4.56351 5.318465,5.06665 6.405345,5.91625 9.799262,7.659963 1.819029,0.93457 3.610532,1.56943 5.734191,2.03205 2.174353,0.47367 6.491102,0.35433 8.736034,-0.2415 z m 50.208553,-0.0492 c 0,-0.37079 -0.91575,-1.56011 -1.55438,-2.01874 -0.85683,-0.615333 -1.03616,-0.654723 -1.18731,-0.260813 -0.12551,0.327063 -0.0332,0.427823 1.4067,1.535923 1.05867,0.8147 1.33499,0.96862 1.33499,0.74363 z m -25.03106,-2.323103 c 0.76016,-0.20013 1.75868,-0.287 3.33748,-0.29038 1.77139,-0.004 2.09232,-0.0364 1.50186,-0.15257 -1.01399,-0.1995 -3.85782,-0.0432 -5.08965,0.27977 -1.00383,0.26319 -3.71292,1.513073 -4.33872,2.001743 -0.18356,0.14335 0.52983,-0.14744 1.58531,-0.64619 1.05547,-0.49875 2.40715,-1.03532 3.00372,-1.192373 z m 18.43955,1.536993 c 1.10949,-0.52223 2.15278,-1.615103 2.80468,-2.937983 0.48741,-0.98908 0.53279,-1.21806 0.53279,-2.68816 0,-1.60213 -0.003,-1.61222 -0.86586,-3.34098 -1.84117,-3.68719 -5.79479,-7.57658 -9.33205,-9.18045 -1.33085,-0.60343 -3.5251,-1.2432 -4.81789,-1.40472 l -0.99503,-0.12432 0.87899,1.01462 c 0.58419,0.67434 1.08637,1.08184 1.49734,1.21504 1.84272,0.59725 5.10624,2.6509 7.00235,4.40641 1.3298,1.23118 1.51678,1.58086 1.13601,2.12449 -0.14355,0.20494 -0.261,0.42975 -0.261,0.49956 0,0.0698 0.36146,0.3101 0.80324,0.53396 0.90822,0.46023 1.85543,1.43199 2.36013,2.42128 0.26773,0.52478 0.34039,0.98347 0.33823,2.13516 -0.003,1.69082 -0.34688,2.51805 -1.31827,3.17267 -2.15593,1.452883 -4.79831,0.36917 -5.27329,-2.16272 -0.14592,-0.7778 0.51408,-2.29873 1.18959,-2.74134 0.70789,-0.46383 2.08826,-0.41793 2.62607,0.0873 0.36431,0.34225 0.3941,0.44778 0.22883,0.81052 -0.17359,0.38098 -0.26108,0.41022 -1.01181,0.33808 -1.03671,-0.0996 -1.44458,0.23752 -1.44458,1.19404 0,0.53539 0.10416,0.74167 0.58986,1.16812 0.62019,0.54453 0.95788,0.6191 1.63604,0.36126 1.04883,-0.39877 1.60427,-1.69796 1.28168,-2.99791 -0.59655,-2.40394 -2.92414,-3.38176 -5.06433,-2.12752 -1.10501,0.64758 -1.6444,1.63958 -1.74516,3.20953 -0.0695,1.0833 -0.0265,1.33682 0.3617,2.13021 0.6134,1.25375 1.62061,2.340103 2.64108,2.848633 1.18907,0.59254 3.0044,0.60768 4.22066,0.0352 z m -31.76816,-1.06416 c 0.20757,-0.26467 0.20166,-0.27058 -0.063,-0.063 -0.27797,0.218 -0.36637,0.35504 -0.22902,0.35504 0.0346,0 0.16606,-0.13142 0.29202,-0.29203 z m 11.71764,-1.792983 c 0.72013,-0.24042 1.99671,-0.54344 2.83686,-0.67338 l 1.52753,-0.23626 -1.28048,0.0847 c -0.70426,0.0466 -1.71802,0.19666 -2.25279,0.33352 -1.02658,0.26271 -3.41232,1.34963 -3.97605,1.81144 -0.18356,0.150383 0.15436,0.0132 0.75093,-0.30474 0.59658,-0.31799 1.67388,-0.77487 2.394,-1.01528 z m 7.90698,1.14982 c -0.0555,-0.0555 -0.19938,-0.0614 -0.31984,-0.0132 -0.13312,0.0533 -0.0936,0.0928 0.10082,0.10082 0.17591,0.007 0.27447,-0.0322 0.21902,-0.0876 z m 17.33448,-1.665 c -0.0557,-0.14518 -0.10129,-0.33291 -0.10129,-0.41719 0,-0.0843 -0.0751,-0.15322 -0.16688,-0.15322 -0.18642,0 -0.22873,0.55001 -0.0556,0.72312 0.2112,0.2112 0.42478,0.11046 0.32379,-0.15271 z m -24.88204,-1.4962 c 1.33189,-0.36407 4.8893,-0.50741 6.33686,-0.25533 1.40586,0.24482 1.62,0.11962 0.3096,-0.18101 -1.15412,-0.26478 -4.69484,-0.25977 -6.14584,0.009 -0.8606,0.15923 -4.08841,1.53695 -4.08841,1.74505 0,0.0397 0.58198,-0.17884 1.29328,-0.48573 0.71129,-0.30689 1.74383,-0.68114 2.29451,-0.83167 z m -1.5853,-1.42426 c 0.32123,-0.16785 0.47142,-0.30511 0.33375,-0.30502 -0.13767,9e-5 -0.58823,0.18681 -1.00125,0.41494 -0.84164,0.46487 -0.24429,0.3665 0.6675,-0.10992 z m 6.65453,-1.40961 c 1.14497,-0.62317 2.41306,-2.01569 2.75833,-3.02898 0.87969,-2.58177 0.28372,-5.57258 -1.44469,-7.24995 -1.49991,-1.45561 -3.32409,-2.03515 -6.38287,-2.02782 -1.8506,0.004 -2.38505,0.0698 -3.63728,0.44457 -1.67216,0.5005 -3.05725,1.15805 -4.62297,2.19469 -1.17423,0.77743 -2.35101,1.89888 -1.75218,1.6698 0.18356,-0.0702 0.82783,-0.16608 1.43171,-0.21301 1.28613,-0.1 2.44173,0.3066 2.91213,1.02452 0.15596,0.23803 0.39057,0.43279 0.52134,0.43279 0.43516,0 1.63268,-0.70552 2.46492,-1.45219 1.13066,-1.01443 2.04365,-1.51823 3.1563,-1.74168 1.93474,-0.38855 3.87712,0.43376 5.05981,2.14207 0.50971,0.73624 0.61287,1.04147 0.68293,2.02059 0.0984,1.37605 -0.12682,2.16815 -0.85127,2.99325 -1.38149,1.57343 -3.90063,1.6241 -5.06173,0.10182 -0.56581,-0.74181 -0.71563,-1.93996 -0.30001,-2.39921 0.59882,-0.66169 1.24785,-0.24643 1.24785,0.7984 0,0.2967 0.15794,0.63088 0.41017,0.86783 0.34499,0.32411 0.53382,0.37139 1.18841,0.29761 1.14428,-0.12898 1.76829,-0.80476 1.86944,-2.02453 0.0646,-0.77911 0.008,-1.03896 -0.36522,-1.67577 -1.26904,-2.16546 -4.59,-2.14011 -6.16699,0.0471 -0.50089,0.69472 -0.52352,0.79599 -0.52202,2.33624 0.002,1.85752 0.15041,2.23629 1.34659,3.43247 1.2837,1.2837 2.11467,1.61062 3.91475,1.54014 1.01169,-0.0396 1.43112,-0.14351 2.14255,-0.53072 z m -7.82265,0.005 c 0.26741,-0.15286 0.32379,-0.24061 0.15705,-0.2444 -0.14307,-0.003 -0.4059,0.10434 -0.58406,0.23909 -0.41483,0.31376 -0.11901,0.31744 0.42701,0.005 z m -1.00124,-1.50187 c 0.24195,-0.13831 0.31204,-0.23873 0.16687,-0.23909 -0.13767,-3.3e-4 -0.39608,0.10965 -0.57423,0.2444 -0.41217,0.31175 -0.14109,0.30821 0.40736,-0.005 z m -0.96356,-1.4178 c 0.3005,-0.18322 0.47128,-0.33291 0.3795,-0.33265 -0.0918,2.6e-4 -0.39215,0.14968 -0.6675,0.33203 -0.65241,0.43207 -0.42047,0.43258 0.288,6.2e-4 z m -24.90187,-0.0662 c 0,-0.0361 -0.11654,-0.1103 -0.258978,-0.16496 -0.148505,-0.057 -0.215488,-0.029 -0.157025,0.0656 0.098,0.15856 0.416003,0.23453 0.416003,0.0994 z m -0.759276,-0.40897 c -0.262542,-0.2332 -2.411325,-1.38403 -2.411325,-1.29145 0,0.0829 2.342263,1.42557 2.494762,1.43005 0.0413,0.001 0.0038,-0.0612 -0.08344,-0.1386 z m 8.644288,-0.0183 c 0.879811,-0.1441 4.392026,-1.63685 4.230743,-1.79813 -0.03829,-0.0383 -0.680011,0.12321 -1.426056,0.35889 -6.654897,2.10228 -13.481881,-0.59397 -19.901211,-7.85978 -1.503425,-1.70167 -2.135901,-2.21066 -2.135901,-1.71889 0,0.21453 2.987034,3.3384 4.755901,4.97377 4.278336,3.95545 8.657331,6.15017 12.348655,6.18904 0.642464,0.007 1.600005,-0.0584 2.127869,-0.1449 z m 34.918098,-0.34922 c -0.79472,-0.53859 -2.46607,-1.44822 -2.89947,-1.57804 -0.83718,-0.25076 -0.12651,0.27848 1.45215,1.08143 1.69839,0.86385 2.28744,1.06597 1.44732,0.49661 z m -25.58636,-0.38429 c 0.9609,-1.2043 2.43301,-1.37334 2.2697,-0.26063 -0.0973,0.66279 0.34652,0.65251 0.47924,-0.0111 0.1876,-0.93801 0.57993,-0.96834 1.75665,-0.13581 0.21407,0.15146 0.37926,0.1518 0.70922,0.001 0.3566,-0.16248 0.43014,-0.30869 0.43014,-0.85514 0,-1.06501 -0.67908,-1.48674 -2.06041,-1.2796 -1.21655,0.18243 -4.28079,2.23222 -4.28079,2.86358 0,0.37782 0.21782,0.27684 0.69625,-0.32276 z m 27.67096,-0.19364 c -0.64279,-0.77451 -4.32556,-3.20532 -5.29692,-3.49623 -0.58668,-0.1757 -0.51058,0.52929 0.0834,0.77288 1.49224,0.61195 2.62408,1.20517 3.87982,2.0335 1.53305,1.01126 1.65107,1.07231 1.33366,0.68985 z m -19.66655,-0.75759 0.39396,-0.342 -0.54234,0.26285 c -0.53367,0.25865 -0.68568,0.42116 -0.39396,0.42116 0.0816,0 0.32567,-0.1539 0.54234,-0.34201 z m -15.959669,-0.9166 c 1.422586,-0.3853 3.496046,-1.39895 4.715487,-2.30524 1.215472,-0.90335 2.582832,-2.66892 2.990972,-3.86203 0.39672,-1.15975 0.38989,-3.11083 -0.0146,-4.17185 -1.18562,-3.10986 -4.403015,-5.75045 -7.39031,-6.06539 -1.931871,-0.20367 -3.523619,0.0222 -4.927448,0.69925 -1.679375,0.80992 -2.511747,1.57418 -3.168426,2.90912 -0.520528,1.05817 -0.549322,1.2132 -0.548857,2.95501 4.5e-4,1.68736 0.04,1.91889 0.481901,2.82077 0.900976,1.83882 2.450245,2.93785 4.679764,3.31975 2.106439,0.36081 4.560517,-0.47247 5.594287,-1.89955 0.97275,-1.34284 1.012406,-3.21116 0.09372,-4.41562 -1.290449,-1.69187 -3.301628,-2.02488 -4.769507,-0.78974 -1.143862,0.9625 -1.265685,1.94869 -0.39676,3.21189 0.693462,1.00811 0.712121,1.5675 0.05483,1.64378 -0.963523,0.11183 -2.150944,-1.56026 -2.150944,-3.02889 0,-1.46157 0.937189,-2.84689 2.448076,-3.61866 1.099684,-0.56173 2.806309,-0.57722 3.905736,-0.0354 1.120406,0.55212 2.018632,1.3884 2.578553,2.40072 0.432223,0.78145 0.494699,1.06264 0.495306,2.22923 5.89e-4,1.13326 -0.07176,1.48255 -0.478764,2.31145 -0.935701,1.90562 -3.048669,3.50061 -5.24106,3.95626 -1.572668,0.32684 -4.679463,0.11854 -6.377826,-0.42762 -3.318086,-1.06703 -6.796947,-3.34683 -9.65431,-6.32675 -0.870544,-0.90788 -1.359356,-1.16218 -1.359356,-0.70717 0,0.12353 0.745322,1.05278 1.656271,2.06502 3.59924,3.99942 7.431382,6.43071 11.526753,7.31312 1.330139,0.2866 3.849606,0.19964 5.256522,-0.18142 z m 10.402729,-4.3334 c 3.68029,-2.76641 7.86643,-3.9789 11.83309,-3.42736 2.84955,0.3962 3.06771,0.3933 4.98097,-0.0662 2.69744,-0.64787 5.48808,-1.64076 8.57763,-3.05185 10.80199,-4.93362 16.53854,-6.66466 22.32791,-6.73758 1.32462,-0.0167 1.38591,-0.0313 0.70066,-0.16681 -0.81538,-0.16128 -3.24533,0.0281 -5.75714,0.44867 -3.42191,0.57297 -8.19779,2.10215 -13.09959,4.19433 -6.47486,2.7636 -7.7819,3.21275 -11.53858,3.96513 -3.89254,0.77958 -6.31171,0.97404 -10.65562,0.85652 -2.15685,-0.0584 -4.40965,-0.17873 -5.00622,-0.26751 -0.59657,-0.0888 -1.50596,-0.20998 -2.02086,-0.26935 l -0.93619,-0.10793 -0.0827,1.64836 c -0.0587,1.16859 -0.20629,2.00048 -0.50724,2.85818 -0.23347,0.66541 -0.3878,1.20984 -0.34295,1.20984 0.0448,0 0.73194,-0.48889 1.52686,-1.08642 z m -17.9992,0.33101 c -0.1163,-0.14014 -0.8952,-0.65724 -1.730888,-1.14911 -1.955542,-1.15101 -3.697911,-2.48583 -5.301331,-4.06134 -0.895902,-0.88031 -1.36023,-1.22528 -1.550778,-1.15216 -0.408346,0.15669 -0.133969,0.54447 1.418798,2.00521 1.540245,1.44895 3.990221,3.13713 5.828218,4.01599 1.366925,0.65361 1.656505,0.72761 1.335981,0.34141 z m 86.53533,-0.32169 c 0.50162,-0.50162 0.52168,-0.98018 0.0604,-1.44144 -0.24426,-0.24426 -0.45735,-0.31478 -0.70921,-0.23471 -0.90139,0.28658 -1.20513,0.27333 -1.51218,-0.066 -0.29455,-0.32547 -0.29583,-0.36488 -0.0253,-0.77778 0.29032,-0.44308 0.24998,-0.9086 -0.0787,-0.9086 -0.10008,0 -0.13974,0.0683 -0.0881,0.15181 0.14498,0.23459 -0.0781,0.67292 -0.4414,0.86736 -0.44939,0.24051 -0.87873,-0.17006 -1.21717,-1.16396 -0.14477,-0.42516 -0.37049,-0.96075 -0.5016,-1.1902 l -0.23837,-0.41719 -0.001,0.41719 c -0.002,0.56217 0.8101,2.43061 1.47844,3.40202 0.67252,0.97746 1.7398,1.77106 2.38185,1.77106 0.2905,0 0.64651,-0.16333 0.89277,-0.4096 z m -88.700972,-3.252 c 0,-0.18853 -0.395966,-0.65977 -0.946485,-1.1264 -0.520566,-0.44125 -1.465147,-1.2716 -2.099067,-1.84523 -0.633921,-0.57363 -1.217329,-1.04296 -1.296462,-1.04296 -0.395172,0 -0.309288,0.4245 0.19313,0.95458 0.678854,0.71624 3.848042,3.38046 4.023729,3.38261 0.06884,8.4e-4 0.125155,-0.14433 0.125155,-0.3226 z m -10.711405,-2.66799 c 1.9037,-0.70192 4.551509,-2.06407 6.289252,-3.23548 1.826328,-1.23112 4.404538,-3.78791 6.08821,-6.03762 4.375704,-5.8468 8.119277,-9.27755 11.206783,-10.27031 1.254547,-0.40339 1.462445,-0.63632 0.285311,-0.31967 -3.220461,0.86632 -6.773895,3.6482 -10.778295,8.43801 -0.928765,1.11093 -2.238421,2.52292 -2.910347,3.13776 -3.112363,2.84795 -7.973272,5.42534 -11.960291,6.34168 -0.582963,0.13398 -1.100014,0.28368 -1.149002,0.33267 -0.137037,0.13704 1.309427,2.10197 1.547342,2.10197 0.03012,0 0.651588,-0.22005 1.381037,-0.48901 z m 44.182327,0.31163 c 4.33683,-0.42202 8.41682,-1.52492 13.25372,-3.58274 5.0437,-2.14581 7.70835,-3.15734 10.55248,-4.00585 5.92247,-1.76691 10.14064,-2.19597 14.72889,-1.4982 0.27535,0.0419 0.0876,-0.0438 -0.41718,-0.19036 -0.69096,-0.20062 -1.74269,-0.27156 -4.25528,-0.28703 -3.76678,-0.0232 -5.06226,0.16973 -9.43153,1.40455 -3.19759,0.90369 -3.84991,1.1304 -8.00677,2.7827 -1.97329,0.78435 -4.22608,1.6441 -5.00622,1.91054 -7.52397,2.56974 -17.2899,2.95028 -25.02565,0.97517 -1.94555,-0.49674 -1.93098,-0.50382 -1.34653,0.65396 0.2746,0.544 0.57013,1.03287 0.65673,1.08639 0.16231,0.10032 3.92106,0.69541 5.10655,0.80848 1.51747,0.14474 7.4965,0.10726 9.19079,-0.0576 z m -33.811677,-1.00383 c -0.267156,-0.49918 -1.854609,-1.82252 -2.18627,-1.82252 -0.482271,0 -0.173185,0.46113 1.052655,1.57045 0.709489,0.64205 1.074214,0.87324 1.159618,0.73505 0.06852,-0.11088 0.05682,-0.32822 -0.026,-0.48298 z m 36.757957,-2.08361 c 4.17636,-0.5782 6.84812,-1.32801 12.14306,-3.40786 4.85393,-1.90663 7.25436,-2.73325 9.92898,-3.41916 3.89159,-0.998 5.14958,-1.15904 9.01118,-1.15355 3.07076,0.004 3.65921,0.0492 4.7559,0.36226 1.93455,0.55224 2.17705,0.58079 1.03165,0.12145 -2.40035,-0.9626 -6.73996,-1.2362 -10.62688,-0.66998 -2.76131,0.40225 -6.5616,1.38378 -9.34493,2.4136 -10.09207,3.734 -12.62858,4.30405 -19.85798,4.46283 -5.47444,0.12025 -9.302,-0.33543 -13.68365,-1.62907 -0.9178,-0.27097 -2.29532,-0.6026 -3.06117,-0.73694 -1.652274,-0.28984 -2.900987,-0.83584 -3.681627,-1.60978 -2.475708,-2.45446 -1.631145,-6.8706 1.513734,-7.91516 3.024703,-1.00464 6.139543,0.73555 6.139543,3.43003 0,2.07384 -1.79586,3.49558 -3.91359,3.09829 -1.32313,-0.24822 -2.523944,-2.03125 -2.106831,-3.12834 0.342667,-0.90128 1.355291,-0.72929 1.355291,0.23019 0,1.04354 1.38639,1.81006 2.34547,1.29678 0.39362,-0.21066 0.82535,-1.01198 0.8245,-1.53035 -9e-4,-0.55609 -0.57965,-1.42016 -1.20768,-1.80308 -0.78871,-0.48088 -2.48466,-0.45682 -3.375786,0.0479 -1.258825,0.71298 -1.854234,2.25062 -1.425961,3.68255 0.299373,1.00094 0.752055,1.55488 1.728156,2.11471 0.768741,0.4409 1.012951,0.49381 2.279411,0.49381 1.26136,0 1.51226,-0.0538 2.26579,-0.48602 0.98717,-0.56622 1.82279,-1.46184 2.25809,-2.42023 0.42347,-0.93234 0.41255,-2.61762 -0.0232,-3.57793 -0.44671,-0.9845 -2.1974,-2.66071 -3.42032,-3.2748 -0.92698,-0.46549 -1.12579,-0.50062 -2.83256,-0.50062 H 98.3491 l -1.359993,0.71911 c -1.748866,0.92473 -4.11375,2.89885 -5.854536,4.88715 -1.830031,2.09024 -4.383195,5.49246 -4.383195,5.84084 0,0.15351 0.17326,0.39263 0.385023,0.53139 0.35718,0.23403 0.468803,0.21189 1.543582,-0.30621 1.67106,-0.80553 2.911555,-1.08661 4.85233,-1.09944 2.479247,-0.0164 3.791049,0.42342 6.460498,2.16605 2.189001,1.42899 6.960211,2.58452 12.790871,3.09777 1.45201,0.12782 6.52264,-0.0707 8.38241,-0.32819 z m -36.156821,-0.37467 c -0.15094,-0.47557 -0.910839,-0.94989 -1.145638,-0.71509 -0.13153,0.13153 -0.02474,0.34443 0.384636,0.7668 0.581473,0.59992 0.959667,0.57422 0.761002,-0.0517 z m -12.859347,-0.37628 c 3.696935,-0.88168 7.413547,-2.80161 10.512236,-5.43042 0.614959,-0.5217 2.373447,-2.38317 3.907752,-4.13659 3.990142,-4.55997 6.758846,-6.73753 9.999967,-7.86489 2.008926,-0.69876 2.047205,-0.72244 1.188503,-0.73524 -1.679877,-0.025 -4.360384,1.02831 -6.327236,2.48639 -0.607189,0.45013 -2.490505,2.23613 -4.185147,3.96889 -3.756649,3.84115 -5.822891,5.44218 -9.267849,7.18119 -2.312624,1.16741 -6.057721,2.23983 -8.62336,2.46933 -0.7113,0.0636 -1.293272,0.16686 -1.293272,0.22941 0,0.17462 1.308597,1.89953 1.616807,2.13117 0.296011,0.22247 0.271769,0.2254 2.471599,-0.29924 z m 14.008086,-1.14226 c 0.253652,-0.41041 -0.461301,-1.02962 -0.798961,-0.69196 -0.113285,0.11328 -0.06838,0.27892 0.137205,0.50609 0.333529,0.36854 0.517009,0.42008 0.661756,0.18587 z m 38.043932,-1.33609 c 3.22918,-0.52331 6.0285,-1.26275 9.01361,-2.38095 9.73414,-3.64635 13.28091,-4.43099 19.27361,-4.26381 3.52481,0.0983 5.42962,0.48217 7.66795,1.54515 0.67963,0.32275 1.26163,0.56088 1.29334,0.52917 0.0317,-0.0317 -0.74898,-0.44317 -1.73488,-0.91436 -2.75655,-1.31741 -3.86698,-1.55531 -7.73331,-1.65683 -5.20921,-0.13678 -7.55995,0.30115 -15.00189,2.79471 -8.15489,2.73245 -10.38304,3.16581 -16.9019,3.28727 -5.04631,0.094 -6.97144,-0.0516 -10.56575,-0.79903 -1.2999,-0.27033 -2.50372,-0.4883 -2.67514,-0.48439 -0.17142,0.004 -0.64071,0.29608 -1.04288,0.64927 -0.62905,0.55244 -0.68733,0.65553 -0.41718,0.73788 0.87671,0.26727 3.53424,0.78111 5.2368,1.01255 1.05547,0.14348 2.14433,0.29232 2.41967,0.33076 0.27534,0.0384 2.4155,0.0456 4.7559,0.016 3.32051,-0.0421 4.72906,-0.13066 6.41205,-0.4034 z m 0.28931,-2.7802 c 3.57672,-0.45699 6.50882,-1.17713 11.54842,-2.83635 6.12207,-2.01561 6.06563,-1.99847 7.86596,-2.38897 2.69785,-0.58519 4.56894,-0.73183 8.21941,-0.64418 3.92675,0.0943 4.9929,0.31837 8.09249,1.70089 0.89486,0.39914 1.62702,0.69959 1.62702,0.66767 0,-0.13982 -2.03028,-1.22546 -3.19933,-1.71075 -2.22966,-0.92557 -3.73916,-1.20621 -7.0634,-1.3132 -4.5257,-0.14566 -7.28304,0.32465 -13.3499,2.27704 -6.29712,2.02649 -9.47007,2.69022 -14.39609,3.01142 -5.04446,0.32893 -11.02838,-0.24241 -15.10271,-1.44198 -0.22571,-0.0665 -0.3762,0.0944 -0.63444,0.67821 -0.18619,0.42093 -0.29801,0.8309 -0.24847,0.91105 0.11234,0.18177 4.22281,0.97939 6.01815,1.1678 2.39335,0.25116 8.38896,0.20677 10.62289,-0.0787 z m 0.99887,-2.91243 c 3.88527,-0.38633 6.49469,-0.97801 11.74056,-2.66217 5.33011,-1.7112 8.34224,-2.35713 12.09834,-2.59441 4.43492,-0.28015 9.53082,0.90143 12.6879,2.94195 1.33061,0.86001 1.44517,0.82497 0.2746,-0.084 -1.05937,-0.82262 -3.51662,-2.08154 -5.036,-2.58008 -2.18102,-0.71564 -3.54539,-0.89325 -7.00869,-0.91234 -4.01687,-0.0221 -5.28342,0.19108 -10.64721,1.79247 -1.94538,0.5808 -4.51327,1.28862 -5.70642,1.57292 -4.563,1.08725 -10.08299,1.53688 -14.8542,1.20994 -2.07217,-0.14199 -2.66387,-0.12956 -3.42091,0.0719 -2.63875,0.70219 -4.23545,0.0867 -7.71011,-2.97232 -0.75111,-0.66126 -1.2974,-1.08965 -1.21397,-0.95198 0.0834,0.13767 0.35285,0.55069 0.59872,0.91781 0.44142,0.65911 0.98535,2.0404 0.98535,2.50223 0,0.45871 3.26919,1.24653 6.92527,1.66886 2.28628,0.26411 7.98601,0.308 10.28677,0.0792 z m -47.26913,-2.12267 c 1.681138,-0.93367 3.463926,-2.60587 3.987432,-3.7401 0.845192,-1.83119 0.781177,-4.07953 -0.166792,-5.8581 -0.604141,-1.13349 -1.201485,-1.68499 -2.443357,-2.25583 -0.755594,-0.34733 -1.070587,-0.39902 -2.01819,-0.33122 -1.974751,0.14129 -3.575636,1.09356 -4.407326,2.62165 -0.926419,1.70214 -0.734823,3.48225 0.513099,4.76719 1.376648,1.41749 3.154119,1.45792 4.611574,0.10489 0.663841,-0.61627 0.973637,-1.28194 0.986296,-2.11929 0.02049,-1.35506 -1.049312,-2.27612 -2.232086,-1.92175 -1.176269,0.35242 -1.461192,1.30925 -0.716293,2.40547 0.441826,0.65021 0.438525,1.04532 -0.01017,1.2175 -0.489624,0.18789 -1.091098,-0.11691 -1.525224,-0.77292 -0.379051,-0.57279 -0.428183,-0.794 -0.366314,-1.64933 0.127018,-1.75601 1.233115,-2.75295 3.068429,-2.76562 0.831316,-0.006 1.137027,0.0748 1.701232,0.44817 2.584357,1.71025 1.952715,5.57112 -1.166439,7.12978 -1.10964,0.55449 -2.430799,0.67787 -3.450886,0.32226 -0.293723,-0.10239 -0.56819,-0.15201 -0.609927,-0.11028 -0.107107,0.10711 2.465307,3.30018 2.658703,3.30018 0.08746,0 0.801264,-0.35669 1.586239,-0.79265 z M 34.386399,107.92857 c -0.110136,-0.11014 -0.200248,-0.33369 -0.200248,-0.49678 0,-0.84111 2.446235,-1.39367 6.090891,-1.37583 3.939282,0.0193 6.758385,0.59876 6.758385,1.38921 0,0.69684 -0.390528,0.76331 -2.471781,0.42067 -2.363507,-0.3891 -6.316524,-0.38525 -8.18584,0.008 -1.461432,0.30743 -1.731317,0.31485 -1.991407,0.0548 z"
       id="path1"
       inkscape:export-filename="exsyn-wave.png"
       inkscape:export-xdpi="96"
       inkscape:export-ydpi="96" /></g></svg>
